# xmcd
#
# Track frame offsets:
#	150
#	6467
#	27947
#	47042
#	66857
#	69117
#	92150
#	115392
#	136550
#	139910
#	159175
#	181602
#	198717
#	219687
#	240155
#	263090
#	287230
#
# Disc length: 4124 seconds
# Revision: 0
# Processed by: cddbd v1.5.2PL0 Copyright (c) Steve Scherf et al.
# Submitted via: dBpowerAMP V12.0
#
DISCID=ed101a11
DTITLE=Various Artist - Share My World
DYEAR=1997
DGENRE=R&B
TTITLE0=Mary J. Blige - Intro
TTITLE1=Mary J. Blige feat. Lil' Kim - I Can Love You
TTITLE2=Mary J. Blige - Love Is All We Need
TTITLE3=Mary J. Blige - Round and Round
TTITLE4=Mary J. Blige - Share My World (Interlude)
TTITLE5=Mary J. Blige - Share My World
TTITLE6=Mary J. Blige - Seven Days
TTITLE7=Mary J. Blige feat. R. Kelly - It's On
TTITLE8=Mary J. Blige - Thank You Lord (Interlude)
TTITLE9=Mary J. Blige - Missing You
TTITLE10=Mary J. Blige - Everything
TTITLE11=Mary J. Blige - Keep Your Head
TTITLE12=Mary J. Blige feat. The Lox - Can't Get You off My Mind
TTITLE13=Mary J. Blige - Get to Know You Better
TTITLE14=Mary J. Blige - Searching
TTITLE15=Mary J. Blige - Our Love
TTITLE16=Mary J. Blige - Not Gon' Cry
EXTD=
EXTT0=
EXTT1=
EXTT2=
EXTT3=
EXTT4=
EXTT5=
EXTT6=
EXTT7=
EXTT8=
EXTT9=
EXTT10=
EXTT11=
EXTT12=
EXTT13=
EXTT14=
EXTT15=
EXTT16=
PLAYORDER=
